HIERARCHY
ROOT joint_Root
{
	OFFSET 0.0 0.0 0.0
	CHANNELS 6 Xposition Yposition Zposition Zrotation Xrotation Yrotation 
	JOINT Hips
	{
		OFFSET -0.726466 93.3139 -2.00062
		CHANNELS 6 Xposition Yposition Zposition Zrotation Xrotation Yrotation 
		JOINT Spine
		{
			OFFSET 15.7357 0.0 0.0
			CHANNELS 6 Xposition Yposition Zposition Zrotation Xrotation Yrotation 
			JOINT Chest
			{
				OFFSET 8.98455 -0.406207 0.0
				CHANNELS 6 Xposition Yposition Zposition Zrotation Xrotation Yrotation 
				JOINT Neck
				{
					OFFSET 16.3773 0.0 0.0
					CHANNELS 6 Xposition Yposition Zposition Zrotation Xrotation Yrotation 
					JOINT Head
					{
						OFFSET 6.45672 0.0 0.0
						CHANNELS 6 Xposition Yposition Zposition Zrotation Xrotation Yrotation 
						End Site
						{
							OFFSET 0.0 0.0 0.0
						}
					}
				}
				JOINT Shoulder_L
				{
					OFFSET 12.9942 -0.242716 4.98039
					CHANNELS 6 Xposition Yposition Zposition Zrotation Xrotation Yrotation 
					JOINT UpperArm_L
					{
						OFFSET 5.34809 0.0 0.0
						CHANNELS 6 Xposition Yposition Zposition Zrotation Xrotation Yrotation 
						JOINT LowerArm_L
						{
							OFFSET 24.3286 1.87007e-05 0.0
							CHANNELS 6 Xposition Yposition Zposition Zrotation Xrotation Yrotation 
							JOINT Hand_L
							{
								OFFSET 22.2916 0.0 0.0
								CHANNELS 6 Xposition Yposition Zposition Zrotation Xrotation Yrotation 
								End Site
								{
									OFFSET 0.0 0.0 0.0
								}
							}
						}
					}
				}
				JOINT Shoulder_R
				{
					OFFSET 12.9945 -0.242716 -4.98039
					CHANNELS 6 Xposition Yposition Zposition Zrotation Xrotation Yrotation 
					JOINT UpperArm_R
					{
						OFFSET -5.34813 0.0 0.0
						CHANNELS 6 Xposition Yposition Zposition Zrotation Xrotation Yrotation 
						JOINT LowerArm_R
						{
							OFFSET -24.3289 0.000322201 0.0
							CHANNELS 6 Xposition Yposition Zposition Zrotation Xrotation Yrotation 
							JOINT Hand_R
							{
								OFFSET -22.2915 -0.000108084 0.0
								CHANNELS 6 Xposition Yposition Zposition Zrotation Xrotation Yrotation 
								End Site
								{
									OFFSET 0.0 0.0 0.0
								}
							}
						}
					}
				}
			}
		}
		JOINT UpperLeg_L
		{
			OFFSET -2.19248 -6.46944 0.0
			CHANNELS 6 Xposition Yposition Zposition Zrotation Xrotation Yrotation 
			JOINT LowerLeg_L
			{
				OFFSET 39.0811 0.0 -1.23785e-05
				CHANNELS 6 Xposition Yposition Zposition Zrotation Xrotation Yrotation 
				JOINT Foot_L
				{
					OFFSET 40.9854 0.0 -1.26872e-05
					CHANNELS 6 Xposition Yposition Zposition Zrotation Xrotation Yrotation 
					JOINT Toes_L
					{
						OFFSET 11.7543 0.0 0.0
						CHANNELS 6 Xposition Yposition Zposition Zrotation Xrotation Yrotation 
						End Site
						{
							OFFSET 0.0 0.0 0.0
						}
					}
				}
			}
		}
		JOINT UpperLeg_R
		{
			OFFSET -2.19251 6.46944 0.0
			CHANNELS 6 Xposition Yposition Zposition Zrotation Xrotation Yrotation 
			JOINT LowerLeg_R
			{
				OFFSET -39.0811 -0.00228153 -0.0401928
				CHANNELS 6 Xposition Yposition Zposition Zrotation Xrotation Yrotation 
				JOINT Foot_R
				{
					OFFSET -40.9854 0.0 0.0
					CHANNELS 6 Xposition Yposition Zposition Zrotation Xrotation Yrotation 
					JOINT Toes_R
					{
						OFFSET -11.7543 0.0 0.0
						CHANNELS 6 Xposition Yposition Zposition Zrotation Xrotation Yrotation 
						End Site
						{
							OFFSET 0.0 0.0 0.0
						}
					}
				}
			}
		}
	}
}
MOTION
Frames:	9
Frame Time:	0.0333333
0.000000 0.000000 0.000000 0.000000 0.000000 -0.000000 -1.311250 92.364100 -0.487746 87.628500 -1.370710 4.182970 15.735700 0.000005 -0.000001 91.150200 85.590500 -91.529200 8.984550 -0.406207 -0.000000 1.051950 0.199149 -0.759089 16.377300 -0.000001 -0.000001 1.674200 -3.493450 2.841730 6.456720 -0.000001 -0.000000 2.019030 -2.923270 -8.213550 12.994200 -0.242716 4.980390 -89.744300 -0.825440 -72.784300 5.348090 -0.000007 -0.000001 -70.519100 35.251900 -10.576700 24.328600 0.000019 0.000005 2.142360 6.899490 -17.296800 22.291600 -0.000001 0.000005 6.562420 5.429360 -3.915950 12.994500 -0.242716 -4.980390 92.279100 -5.243160 -66.466100 -5.348130 -0.000001 -0.000004 -52.996800 -50.179400 -104.950000 -24.328900 0.000322 -0.000009 13.290400 7.888300 -59.840400 -22.291500 -0.000108 -0.000004 42.673100 5.680330 -18.285700 -2.192480 -6.469440 -0.000000 -174.273000 -9.271260 -2.239390 39.081100 -0.000007 -0.000012 -0.118791 0.284827 22.639300 40.985400 -0.000006 -0.000013 -0.587169 4.169800 -66.184900 11.754300 -0.000000 0.000003 -0.000047 -0.000534 -16.598300 -2.192510 6.469440 -0.000001 -179.294000 15.728800 -179.440000 -39.081100 -0.002282 -0.040193 0.011659 -0.024555 18.748900 -40.985400 0.000008 0.000006 5.752860 8.217520 -66.014700 -11.754300 -0.000006 -0.000006 -0.007735 -0.085851 -20.068800
0.000000 0.000000 0.000000 0.000000 0.000000 -0.000000 -1.345450 92.353600 -0.454932 87.669600 -0.904888 4.291970 15.735700 0.000005 -0.000001 92.590300 85.572300 -93.164200 8.984550 -0.406207 -0.000000 1.082870 0.433499 -1.151020 16.377300 -0.000001 -0.000001 1.795010 -3.236970 2.576230 6.456720 -0.000001 -0.000000 2.127600 -2.912830 -8.151030 12.994200 -0.242716 4.980390 -89.800500 -0.634904 -72.554400 5.348090 -0.000007 -0.000001 -69.293500 35.381900 -11.724100 24.328600 0.000019 0.000005 2.145570 6.460760 -18.416800 22.291600 -0.000001 0.000005 6.652230 5.439840 -4.280060 12.994500 -0.242716 -4.980390 92.220600 -5.159670 -66.675400 -5.348130 -0.000001 -0.000004 -56.742100 -49.817700 -105.914000 -24.328900 0.000322 -0.000009 10.059200 8.184350 -51.237000 -22.291500 -0.000108 -0.000004 35.870700 5.601290 -11.179000 -2.192480 -6.469440 -0.000000 -174.309000 -8.902460 -2.211940 39.081100 -0.000007 -0.000012 -0.118254 0.282873 22.687300 40.985400 -0.000006 -0.000013 -0.592116 4.228940 -66.190400 11.754300 -0.000000 0.000003 -0.000059 -0.000653 -16.602900 -2.192510 6.469440 -0.000001 -179.386000 16.116200 -179.288000 -39.081100 -0.002282 -0.040193 0.010559 -0.021273 18.783100 -40.985400 0.000008 0.000006 5.676890 8.148820 -66.078100 -11.754300 -0.000006 -0.000006 -0.007549 -0.084308 -20.005800
0.000000 0.000000 0.000000 0.000000 0.000000 -0.000000 -1.387390 92.347500 -0.432752 87.686400 -0.255471 4.304400 15.735700 0.000005 -0.000001 93.304900 85.574600 -94.056600 8.984550 -0.406207 -0.000000 1.074240 0.553910 -1.507250 16.377300 -0.000001 -0.000001 1.885050 -2.845860 2.157300 6.456720 -0.000001 -0.000000 2.080200 -2.719090 -8.396390 12.994200 -0.242716 4.980390 -89.869900 -0.406221 -72.233200 5.348090 -0.000007 -0.000001 -68.154500 35.423500 -12.804200 24.328600 0.000019 0.000005 2.005430 5.556220 -19.883300 22.291600 -0.000001 0.000005 6.563810 5.445110 -4.465560 12.994500 -0.242716 -4.980390 92.241600 -5.281350 -66.962200 -5.348130 -0.000001 -0.000004 -61.176700 -49.644300 -107.100000 -24.328900 0.000322 -0.000009 5.450280 6.013110 -42.297600 -22.291500 -0.000108 -0.000004 30.676500 5.455390 -4.741330 -2.192480 -6.469440 -0.000000 -174.312000 -8.480660 -2.332930 39.081100 -0.000007 -0.000012 -0.120584 0.287646 22.743900 40.985400 -0.000006 -0.000013 -0.578426 4.465830 -66.165700 11.754300 -0.000000 0.000003 -0.000042 -0.000482 -16.596300 -2.192510 6.469440 -0.000001 -179.388000 16.533000 -179.214000 -39.081100 -0.002282 -0.040193 0.013128 -0.028831 18.781100 -40.985400 0.000008 0.000006 5.788740 7.887190 -66.159700 -11.754300 -0.000006 -0.000006 -0.007898 -0.087196 -20.123700
0.000000 0.000000 0.000000 0.000000 0.000000 -0.000000 -1.415000 92.359600 -0.403171 87.750000 0.350955 4.274470 15.735700 0.000005 -0.000001 93.858800 85.586000 -94.795400 8.984550 -0.406207 -0.000000 1.048060 0.648762 -1.877480 16.377300 -0.000001 -0.000001 1.943580 -2.441430 1.619860 6.456720 -0.000001 -0.000000 1.990250 -2.350400 -8.561450 12.994200 -0.242716 4.980390 -89.897700 -0.315284 -72.019900 5.348090 -0.000007 -0.000001 -67.433700 35.335400 -13.536000 24.328600 0.000019 0.000005 1.887050 4.823740 -21.396600 22.291600 -0.000001 0.000005 6.709320 5.453660 -4.770640 12.994500 -0.242716 -4.980390 92.301300 -5.468370 -67.134600 -5.348130 -0.000001 -0.000004 -67.410100 -48.917900 -109.488000 -24.328900 0.000322 -0.000009 2.253650 3.226390 -34.959900 -22.291500 -0.000108 -0.000004 26.830200 5.256940 1.312450 -2.192480 -6.469440 -0.000000 -174.376000 -8.192150 -2.383210 39.081100 -0.000007 -0.000012 -0.118183 0.283572 22.624800 40.985400 -0.000006 -0.000013 -0.536548 4.766240 -66.073800 11.754300 -0.000000 0.000003 -0.000044 -0.000508 -16.597300 -2.192510 6.469440 -0.000001 -179.418000 16.780000 -179.134000 -39.081100 -0.002282 -0.040193 0.015243 -0.035285 18.665100 -40.985400 0.000008 0.000006 5.832870 7.552840 -66.164400 -11.754300 -0.000006 -0.000006 -0.007628 -0.084966 -20.032600
0.000000 0.000000 0.000000 0.000000 0.000000 -0.000000 -1.432460 92.368800 -0.391852 87.759100 0.915415 4.179140 15.735700 0.000005 -0.000001 93.781900 85.603400 -94.824700 8.984550 -0.406207 -0.000000 1.014730 0.641171 -2.089580 16.377300 -0.000001 -0.000001 1.919790 -2.108150 1.352460 6.456720 -0.000001 -0.000000 1.922550 -1.891470 -9.069330 12.994200 -0.242716 4.980390 -89.939500 -0.185444 -71.926000 5.348090 -0.000007 -0.000001 -66.965800 35.340400 -13.970100 24.328600 0.000019 0.000005 1.749500 4.177400 -22.748600 22.291600 -0.000001 0.000005 6.746840 5.459630 -4.987160 12.994500 -0.242716 -4.980390 92.405600 -5.688280 -67.030200 -5.348130 -0.000001 -0.000004 -75.844400 -46.887300 -113.296000 -24.328900 0.000322 -0.000009 1.182290 1.907920 -31.809600 -22.291500 -0.000108 -0.000004 24.913900 4.922680 8.890710 -2.192480 -6.469440 -0.000000 -174.410000 -7.868570 -2.553630 39.081100 -0.000007 -0.000012 -0.116377 0.279770 22.586100 40.985400 -0.000006 -0.000013 -0.500249 4.994620 -66.008000 11.754300 -0.000000 0.000003 -0.000054 -0.000607 -16.601100 -2.192510 6.469440 -0.000001 -179.360000 17.035600 -179.158000 -39.081100 -0.002282 -0.040193 0.018759 -0.045972 18.559500 -40.985400 0.000008 0.000006 5.899860 7.208820 -66.146100 -11.754300 -0.000006 -0.000006 -0.007399 -0.083053 -19.954500
0.000000 0.000000 0.000000 0.000000 0.000000 -0.000000 -1.414880 92.369600 -0.393028 87.838400 1.305280 4.086950 15.735700 0.000005 -0.000001 93.319700 85.618300 -94.404600 8.984550 -0.406207 -0.000000 0.989116 0.571395 -2.172970 16.377300 -0.000001 -0.000001 1.916020 -1.851600 1.133410 6.456720 -0.000001 -0.000000 1.792420 -1.477900 -9.466780 12.994200 -0.242716 4.980390 -89.969300 -0.094438 -71.979000 5.348090 -0.000007 -0.000001 -66.829000 35.610900 -14.089900 24.328600 0.000019 0.000005 1.600490 3.653780 -23.674900 22.291600 -0.000001 0.000005 6.737030 5.465100 -5.188250 12.994500 -0.242716 -4.980390 92.408900 -5.638340 -66.820600 -5.348130 -0.000001 -0.000004 -81.628200 -44.705700 -115.961000 -24.328900 0.000322 -0.000009 -0.773395 -1.255840 -31.574400 -22.291500 -0.000108 -0.000004 29.596300 4.657660 13.874300 -2.192480 -6.469440 -0.000000 -174.512000 -7.699380 -2.674450 39.081100 -0.000007 -0.000012 -0.117169 0.282346 22.537700 40.985400 -0.000006 -0.000013 -0.452386 5.205050 -65.962600 11.754300 -0.000000 0.000003 -0.000050 -0.000564 -16.599500 -2.192510 6.469440 -0.000001 -179.434000 17.199600 -179.243000 -39.081100 -0.002282 -0.040193 0.016664 -0.039678 18.583100 -40.985400 0.000008 0.000006 5.770030 7.020340 -66.155400 -11.754300 -0.000006 -0.000006 -0.007770 -0.086146 -20.080800
0.000000 0.000000 0.000000 0.000000 0.000000 -0.000000 -1.366520 92.370700 -0.369555 87.823100 1.271050 4.065360 15.735700 0.000005 -0.000001 92.784300 85.610100 -93.767400 8.984550 -0.406207 -0.000000 1.008360 0.484265 -1.968960 16.377300 -0.000001 -0.000001 1.977050 -1.679550 1.068460 6.456720 -0.000001 -0.000000 1.672700 -1.084610 -9.881500 12.994200 -0.242716 4.980390 -89.967500 -0.100579 -72.089300 5.348090 -0.000007 -0.000001 -67.071600 36.182700 -13.974300 24.328600 0.000019 0.000005 1.530530 3.456880 -23.898700 22.291600 -0.000001 0.000005 6.609300 5.467790 -5.288060 12.994500 -0.242716 -4.980390 92.413200 -5.600390 -66.642900 -5.348130 -0.000001 -0.000004 -83.549800 -42.941000 -116.972000 -24.328900 0.000322 -0.000009 -2.187200 -3.322470 -33.372300 -22.291500 -0.000108 -0.000004 36.252300 4.694600 13.278200 -2.192480 -6.469440 -0.000000 -174.532000 -7.815910 -2.685710 39.081100 -0.000007 -0.000012 -0.114360 0.275400 22.550800 40.985400 -0.000006 -0.000013 -0.400070 5.237950 -65.985700 11.754300 -0.000000 0.000003 -0.000052 -0.000584 -16.600200 -2.192510 6.469440 -0.000001 -179.461000 17.210900 -179.235000 -39.081100 -0.002282 -0.040193 0.015958 -0.037653 18.549200 -40.985400 0.000008 0.000006 5.691710 7.076340 -66.134300 -11.754300 -0.000006 -0.000006 -0.007868 -0.086952 -20.113700
0.000000 0.000000 0.000000 0.000000 0.000000 -0.000000 -1.276280 92.367100 -0.339804 87.811500 0.896737 4.015830 15.735700 0.000005 -0.000001 92.379100 85.626200 -93.197300 8.984550 -0.406207 -0.000000 0.977558 0.411428 -1.638700 16.377300 -0.000001 -0.000001 2.013880 -1.636090 1.184330 6.456720 -0.000001 -0.000000 1.825520 -0.888978 -10.016000 12.994200 -0.242716 4.980390 -89.919800 -0.250381 -72.229600 5.348090 -0.000007 -0.000001 -67.633600 36.942100 -13.705600 24.328600 0.000019 0.000005 1.536920 3.540270 -23.484600 22.291600 -0.000001 0.000005 6.418990 5.465330 -5.196440 12.994500 -0.242716 -4.980390 92.380500 -5.508010 -66.582300 -5.348130 -0.000001 -0.000004 -80.860200 -42.737200 -116.148000 -24.328900 0.000322 -0.000009 -1.407980 -1.916310 -36.323100 -22.291500 -0.000108 -0.000004 40.389700 4.824710 10.856900 -2.192480 -6.469440 -0.000000 -174.572000 -8.061350 -2.659660 39.081100 -0.000007 -0.000012 -0.113549 0.273235 22.566500 40.985400 -0.000006 -0.000013 -0.364090 5.103990 -66.053800 11.754300 -0.000000 0.000003 -0.000053 -0.000598 -16.600700 -2.192510 6.469440 -0.000001 -179.519000 16.967300 -179.289000 -39.081100 -0.002282 -0.040193 0.010657 -0.021840 18.560500 -40.985400 0.000008 0.000006 5.457240 7.255060 -66.095500 -11.754300 -0.000006 -0.000006 -0.007889 -0.087124 -20.120700
0.000000 0.000000 0.000000 0.000000 0.000000 -0.000000 -1.144330 92.374200 -0.311088 87.794500 0.251393 4.018270 15.735700 0.000005 -0.000001 92.314700 85.637400 -92.945500 8.984550 -0.406207 -0.000000 0.954431 0.389744 -1.263790 16.377300 -0.000001 -0.000001 2.087780 -1.733430 1.387090 6.456720 -0.000001 -0.000000 2.027900 -0.904436 -9.898160 12.994200 -0.242716 4.980390 -89.870100 -0.408923 -72.380200 5.348090 -0.000007 -0.000001 -68.284500 37.644200 -13.303600 24.328600 0.000019 0.000005 1.631400 3.903190 -22.705200 22.291600 -0.000001 0.000005 6.335410 5.462950 -5.109070 12.994500 -0.242716 -4.980390 92.350200 -5.425250 -66.535100 -5.348130 -0.000001 -0.000004 -75.369200 -43.621900 -114.269000 -24.328900 0.000322 -0.000009 0.003573 0.003708 -40.581400 -22.291500 -0.000108 -0.000004 40.927100 4.936870 8.624860 -2.192480 -6.469440 -0.000000 -174.636000 -8.355470 -2.485230 39.081100 -0.000007 -0.000012 -0.113104 0.273191 22.490200 40.985400 -0.000006 -0.000013 -0.348482 4.743410 -66.110800 11.754300 -0.000000 0.000003 -0.000058 -0.000642 -16.602400 -2.192510 6.469440 -0.000001 -179.590000 16.547100 -179.293000 -39.081100 -0.002282 -0.040193 0.010490 -0.021346 18.556400 -40.985400 0.000008 0.000006 5.509800 7.520340 -66.083000 -11.754300 -0.000006 -0.000006 -0.007990 -0.087948 -20.154400
